<?xml version="1.0" standalone="no"?>
<!DOCTYPE svg PUBLIC "-//W3C//DTD SVG 20010904//EN"
 "http://www.w3.org/TR/2001/REC-SVG-20010904/DTD/svg10.dtd">
<svg version="1.0" xmlns="http://www.w3.org/2000/svg"
 width="700.000000pt" height="700.000000pt" viewBox="0 0 700.000000 700.000000"
 preserveAspectRatio="xMidYMid meet">
<metadata>
Created by potrace 1.14, written by Peter Selinger 2001-2017
</metadata>
<g transform="translate(0.000000,700.000000) scale(0.100000,-0.100000)"
fill="#000000" stroke="none">
<path d="M4626 6752 c-14 -14 -38 -17 -149 -16 -73 1 -163 5 -202 10 -132 15
-363 4 -465 -22 -48 -13 -134 -28 -210 -39 -14 -2 -38 -6 -55 -9 -16 -2 -57
-8 -90 -12 -33 -4 -71 -11 -85 -16 -14 -5 -41 -12 -60 -14 -19 -2 -51 -7 -70
-11 -19 -4 -39 -8 -45 -8 -43 -6 -287 -85 -299 -96 -6 -5 -16 -9 -24 -9 -8 0
-50 -16 -95 -35 -86 -37 -177 -116 -212 -185 -29 -57 -90 -142 -136 -191 -64
-68 -89 -99 -89 -111 0 -6 -26 -37 -57 -68 -32 -31 -83 -84 -113 -116 -30 -33
-83 -90 -118 -126 -34 -36 -62 -70 -62 -76 0 -6 -11 -17 -24 -24 -24 -13 -106
-106 -106 -120 0 -5 -8 -8 -18 -8 -21 0 -80 -49 -151 -124 -25 -27 -61 -62
-78 -79 -18 -17 -33 -34 -33 -40 0 -5 -27 -36 -60 -69 -33 -34 -60 -67 -60
-74 0 -7 -4 -14 -8 -16 -8 -3 -103 -143 -111 -163 -2 -5 -10 -17 -18 -26 -21
-25 -53 -91 -53 -111 0 -10 -6 -18 -13 -18 -16 0 -66 -61 -91 -110 -9 -19 -28
-51 -42 -70 -14 -19 -28 -48 -31 -63 -3 -16 -12 -31 -19 -34 -8 -3 -14 -11
-14 -18 0 -7 -7 -18 -15 -25 -9 -7 -14 -19 -11 -26 3 -7 -2 -18 -10 -24 -8 -7
-14 -18 -14 -26 0 -7 -18 -47 -40 -89 -77 -146 -145 -366 -161 -515 -6 -58
-12 -118 -14 -135 -12 -86 -17 -122 -19 -146 -2 -14 -5 -30 -8 -35 -6 -10 -17
-69 -22 -124 -15 -142 -26 -233 -31 -240 -2 -3 -6 -57 -9 -120 -4 -63 -8 -122
-11 -130 -2 -8 -7 -49 -10 -90 -2 -41 -7 -91 -9 -110 -20 -152 -23 -362 -6
-460 5 -30 11 -71 14 -91 3 -20 10 -49 17 -65 6 -16 12 -45 14 -64 4 -42 12
-76 24 -110 5 -14 17 -52 27 -85 10 -33 27 -70 37 -82 11 -12 16 -26 13 -32
-6 -9 27 -84 44 -101 11 -11 40 -69 40 -79 0 -6 15 -33 34 -59 18 -27 36 -58
40 -69 4 -12 21 -40 39 -64 18 -24 41 -60 52 -80 55 -99 81 -139 92 -139 7 0
18 -10 24 -22 7 -13 18 -27 25 -31 7 -4 30 -33 51 -65 20 -31 51 -73 67 -93
82 -95 95 -109 101 -109 14 0 140 -123 150 -146 6 -12 61 -71 122 -131 122
-117 174 -163 213 -183 14 -7 27 -16 30 -19 17 -20 100 -48 135 -45 22 2 77 5
123 8 46 3 90 11 99 18 8 7 41 13 73 14 32 1 73 9 92 17 37 16 170 49 184 46
5 -1 16 1 24 4 23 9 196 39 275 47 39 4 77 10 85 13 35 14 119 22 320 33 52 3
101 10 108 17 8 6 37 12 66 12 28 0 57 4 65 9 8 5 95 9 194 8 99 -1 184 1 189
4 5 3 116 7 246 8 204 2 242 5 271 20 25 14 39 15 56 8 12 -6 28 -6 35 -2 7 5
24 4 37 -1 18 -6 25 -5 29 6 4 9 27 17 64 21 34 4 61 12 64 19 3 10 21 12 67
9 49 -4 65 -2 81 12 10 10 24 19 31 20 7 1 39 5 72 9 33 4 72 13 86 21 15 7
37 11 50 9 13 -3 31 3 41 12 11 10 37 16 70 17 29 0 56 5 60 11 4 5 11 10 15
11 11 1 79 14 143 27 68 14 146 52 160 77 6 11 19 20 30 20 11 0 25 10 31 23
7 12 23 31 37 42 34 27 134 128 150 151 58 86 162 278 162 298 0 3 18 42 39
86 22 44 37 80 35 80 -3 0 4 14 16 30 12 17 18 30 15 30 -3 0 3 13 14 29 12
16 21 33 21 39 0 5 12 31 26 58 39 72 84 162 84 168 0 3 11 29 24 58 25 58 39
93 35 93 -1 0 3 11 10 23 7 13 15 34 17 47 2 13 17 54 33 91 24 57 34 89 46
154 1 3 4 14 7 25 7 21 11 42 28 175 6 48 10 90 9 95 -1 6 1 26 4 45 16 87 23
191 32 450 3 85 7 184 10 220 2 36 7 106 10 155 6 90 10 117 20 165 3 14 8 52
11 85 2 33 9 83 15 110 5 28 12 66 15 85 3 19 8 42 11 50 3 8 7 33 9 55 3 22
7 56 11 75 3 19 6 87 5 150 0 120 -25 256 -60 330 -10 19 -37 96 -61 170 -24
74 -47 144 -51 155 -22 60 -32 99 -37 142 -3 26 -6 53 -7 58 0 6 -9 16 -19 23
-10 8 -16 19 -14 25 2 7 0 23 -5 37 -5 14 -11 39 -13 57 -1 17 -14 46 -28 65
-18 23 -25 45 -24 74 0 27 -7 51 -22 72 -12 18 -19 36 -16 42 3 5 -5 20 -19
33 -14 13 -34 43 -45 68 -11 24 -34 62 -50 84 -17 22 -38 56 -48 75 -9 19 -32
54 -50 77 -18 23 -33 47 -33 53 0 6 -45 73 -101 147 -107 144 -139 194 -139
219 0 10 -8 14 -22 12 -17 -2 -24 3 -28 22 -11 57 -90 138 -157 163 -73 27
-173 77 -173 87 0 7 -101 52 -127 56 -13 2 -83 34 -198 90 -39 19 -77 34 -85
34 -9 0 -26 7 -38 16 -12 8 -22 13 -22 10 0 -3 -12 -1 -27 5 -16 6 -46 12 -68
15 -65 7 -85 12 -120 33 -42 24 -116 26 -139 3z m-301 -137 c39 -3 152 -7 253
-9 118 -2 188 -8 195 -15 6 -6 19 -11 30 -11 37 0 170 -51 249 -96 44 -25 95
-47 112 -49 34 -3 91 -28 101 -44 3 -6 13 -7 21 -4 22 8 63 -17 79 -47 8 -16
30 -31 62 -42 73 -26 166 -86 232 -150 33 -32 62 -58 64 -58 3 0 8 8 10 18 3
9 5 2 6 -16 0 -19 10 -47 21 -62 11 -16 34 -56 51 -90 16 -33 36 -69 44 -78
40 -48 111 -150 122 -175 7 -15 20 -30 28 -33 8 -4 15 -14 15 -24 0 -10 7 -23
15 -30 8 -7 15 -18 15 -24 0 -7 16 -27 35 -46 19 -19 35 -40 35 -47 0 -7 16
-33 35 -59 19 -25 35 -51 35 -58 0 -7 18 -48 40 -92 22 -43 40 -87 40 -96 0
-9 4 -19 10 -23 5 -3 7 -12 4 -20 -3 -8 1 -21 8 -29 9 -8 16 -37 17 -67 1 -29
5 -57 10 -63 5 -6 9 -22 9 -36 1 -44 10 -83 47 -190 19 -58 36 -107 36 -110 4
-17 21 -59 35 -82 8 -16 13 -28 9 -28 -3 0 3 -12 12 -27 10 -15 17 -30 16 -33
-4 -9 9 -44 22 -60 16 -18 27 -94 26 -180 0 -89 -11 -231 -17 -242 -3 -4 -9
-29 -14 -56 -4 -26 -11 -60 -15 -77 -9 -44 -25 -149 -36 -240 -5 -44 -11 -96
-14 -115 -7 -58 -15 -252 -19 -490 -4 -258 -12 -409 -25 -460 -5 -19 -12 -60
-16 -91 -3 -31 -8 -67 -10 -80 -3 -13 -9 -50 -14 -81 -10 -61 -44 -148 -58
-148 -4 0 -9 -10 -9 -22 -3 -42 -23 -106 -49 -154 -14 -26 -25 -51 -25 -56 0
-5 -19 -44 -42 -86 -24 -42 -43 -83 -45 -91 -1 -7 -6 -18 -12 -24 -6 -6 -11
-17 -11 -25 0 -8 -11 -36 -25 -64 -14 -27 -25 -54 -25 -59 0 -8 -90 -206 -110
-241 -6 -10 -10 -23 -10 -30 0 -6 -7 -19 -16 -29 -8 -9 -16 -23 -18 -31 -1 -7
-14 -39 -29 -71 -25 -51 -97 -132 -194 -218 -10 -9 -33 -33 -51 -52 -33 -36
-112 -79 -167 -92 -16 -4 -31 -6 -32 -6 -2 0 -20 -6 -42 -14 -22 -7 -55 -16
-74 -19 -19 -3 -47 -10 -61 -16 -15 -5 -31 -8 -35 -6 -4 3 -39 -2 -77 -10 -38
-8 -78 -17 -89 -18 -11 -2 -41 -9 -67 -15 -105 -24 -139 -31 -163 -31 -13 0
-27 -5 -30 -10 -3 -6 -22 -10 -41 -10 -33 0 -75 -8 -169 -31 -38 -10 -114 -14
-365 -21 -63 -2 -121 -7 -129 -12 -7 -5 -111 -9 -230 -10 -119 -1 -223 -6
-231 -11 -8 -6 -17 -10 -20 -11 -3 0 -13 -4 -23 -8 -10 -5 -23 -3 -32 4 -8 7
-15 8 -15 3 0 -5 -36 -8 -85 -6 -67 3 -86 1 -91 -11 -4 -9 -22 -14 -57 -15
-29 -1 -74 -4 -102 -6 -27 -3 -82 -6 -121 -8 -39 -2 -76 -7 -83 -11 -6 -4 -35
-7 -63 -7 -29 -1 -60 -7 -68 -14 -17 -14 -19 -14 -111 -18 -38 -2 -74 -9 -83
-16 -9 -8 -31 -14 -48 -13 -17 0 -41 -6 -53 -14 -12 -8 -29 -12 -37 -9 -9 4
-45 -4 -82 -15 -36 -12 -76 -23 -89 -24 -12 -2 -31 -8 -42 -13 -11 -6 -31 -11
-45 -11 -49 0 -125 -13 -151 -26 -23 -11 -31 -11 -55 3 -31 17 -64 49 -64 62
0 4 -17 9 -37 11 -26 2 -37 7 -35 17 3 16 -17 43 -28 36 -4 -3 -11 6 -14 20
-4 14 -13 25 -21 25 -9 0 -20 10 -26 23 -10 21 -71 67 -89 67 -4 0 -22 25 -39
55 -17 30 -35 54 -41 52 -10 -2 -58 50 -100 108 -14 19 -32 35 -41 35 -20 0
-39 20 -39 40 0 9 -16 30 -36 46 -94 77 -95 78 -129 155 -15 34 -49 59 -80 59
-16 0 -16 1 -20 38 -1 12 -9 30 -17 40 -9 9 -18 29 -22 44 -3 14 -17 39 -30
55 -17 20 -23 36 -19 56 4 21 1 27 -11 27 -11 0 -27 23 -47 66 -25 57 -32 65
-50 61 -17 -5 -20 -2 -16 15 3 12 -1 35 -10 52 -10 17 -18 36 -19 42 -6 37
-17 55 -30 50 -10 -4 -14 3 -14 23 0 16 -7 34 -15 41 -8 7 -15 24 -15 39 0 14
-7 38 -14 53 -8 16 -15 36 -15 45 1 24 -19 99 -31 123 -6 11 -14 28 -18 38 -5
9 -10 44 -11 77 -2 33 -5 64 -9 70 -3 5 -5 32 -4 59 1 27 -3 55 -8 61 -6 7 -8
40 -4 76 3 35 5 86 5 113 -1 26 4 55 10 62 7 8 13 31 15 52 2 20 7 62 13 92 5
30 9 62 9 70 0 8 5 51 11 95 15 104 20 142 26 212 6 70 21 201 29 261 3 24 11
52 16 63 6 11 9 23 6 28 -3 4 -1 23 4 42 14 49 29 183 31 276 0 33 5 52 11 50
7 -1 15 18 19 42 5 24 12 48 18 55 5 6 12 31 16 56 4 24 20 68 36 98 16 29 27
57 24 61 -2 5 4 16 14 25 10 9 18 31 19 48 0 18 7 37 15 43 17 12 71 115 60
115 -3 0 2 10 13 23 20 22 54 90 54 107 0 5 14 29 30 53 17 25 30 49 30 54 0
6 8 19 18 31 19 23 28 36 77 110 19 30 35 56 35 59 0 3 11 18 25 35 14 16 25
36 25 43 0 7 13 26 29 41 16 15 37 45 47 66 10 23 26 41 40 44 12 3 28 19 35
36 6 16 23 36 36 45 12 8 23 21 23 28 0 6 23 31 50 54 28 23 50 47 50 52 0 11
106 119 117 119 5 0 73 69 153 152 80 83 191 197 247 254 56 57 103 108 105
113 3 10 93 114 178 207 51 57 70 90 70 123 0 34 68 113 108 125 12 4 22 11
22 17 0 5 20 14 45 20 25 6 45 15 45 20 0 5 6 9 13 9 6 0 39 11 72 24 166 68
332 109 429 106 15 0 34 4 40 9 13 11 46 18 124 26 30 2 57 7 62 10 4 3 34 7
66 11 32 3 63 9 69 13 8 6 115 31 187 45 18 3 288 -4 353 -9z"/>
<path d="M1484 4380 l-29 -5 -1 -925 c0 -509 1 -929 3 -935 2 -6 47 -9 118 -7
l115 3 2 752 3 752 135 -207 c74 -114 155 -239 180 -278 25 -38 184 -284 355
-545 l309 -475 138 0 138 0 0 935 0 935 -32 1 c-39 1 -154 1 -185 0 l-22 -1 0
-672 c0 -370 0 -713 0 -763 l-1 -90 -19 30 c-10 17 -47 75 -83 130 -35 55
-145 224 -243 375 -98 151 -215 331 -260 400 -45 69 -117 180 -161 248 -43 67
-109 168 -146 225 -37 56 -69 106 -71 111 -3 10 -194 14 -243 6z"/>
<path d="M4118 4382 l-28 -3 0 -935 0 -935 118 3 117 3 0 777 c0 567 3 771 11
755 6 -12 138 -363 294 -779 l284 -758 106 0 106 0 16 38 c20 48 20 49 268
712 116 311 215 574 220 585 5 11 23 61 41 110 18 50 36 94 40 99 4 4 7 -331
8 -745 0 -415 0 -764 0 -776 1 -22 4 -23 116 -23 85 0 115 3 116 13 4 42 3
1857 -1 1858 -7 1 -302 1 -322 0 -11 -1 -25 -24 -42 -68 -14 -38 -102 -273
-196 -523 -94 -250 -175 -464 -179 -475 -5 -11 -32 -83 -61 -160 -28 -77 -55
-149 -60 -160 -5 -11 -21 -55 -37 -97 -15 -43 -30 -78 -33 -78 -6 0 13 -50
-316 830 -147 393 -271 719 -275 724 -7 8 -254 14 -311 8z"/>
<path d="M1525 6080 c3 -5 8 -10 11 -10 2 0 4 5 4 10 0 6 -5 10 -11 10 -5 0
-7 -4 -4 -10z"/>
<path d="M1585 6080 c3 -5 8 -10 11 -10 2 0 4 5 4 10 0 6 -5 10 -11 10 -5 0
-7 -4 -4 -10z"/>
<path d="M1534 6041 c4 -5 1 -12 -4 -14 -6 -3 -5 -4 2 -3 15 3 23 26 8 26 -6
0 -9 -4 -6 -9z"/>
<path d="M1535 5990 c-3 -5 -1 -10 4 -10 6 0 11 5 11 10 0 6 -2 10 -4 10 -3 0
-8 -4 -11 -10z"/>
</g>
</svg>
